<svg width="570" height="89" viewBox="0 0 570 89" fill="none" xmlns="http://www.w3.org/2000/svg">
<path d="M48.8988 28.3009H46.4348C46.5866 26.8619 46.6645 25.5915 46.6645 24.4859C46.6645 20.3493 45.6096 17.3342 43.4959 15.4325C41.3822 13.5309 38.7742 12.5821 35.6718 12.5821C31.3821 12.5821 27.0808 14.0445 22.7639 16.9656C18.4431 19.8945 14.9087 23.9722 12.1566 29.2066C9.40452 34.441 8.02654 39.9028 8.02654 45.5959C8.02654 51.3792 9.38895 55.6334 12.1099 58.3584C14.8308 61.0834 17.8787 62.4439 21.2575 62.4439C23.2661 62.4439 25.189 62.1773 27.0263 61.6402C28.8636 61.103 30.6231 60.3149 32.2969 59.272C33.6943 54.461 34.395 51.2616 34.395 49.6697C34.395 48.9051 34.1147 48.2974 33.5503 47.8543C32.9859 47.4113 31.9933 47.1878 30.5608 47.1878C30.0742 47.1878 28.9026 47.2662 27.0497 47.4191L27.4584 45.1685C28.7974 44.9215 30.1482 44.8 31.5184 44.8C32.6122 44.8 33.9668 44.8313 35.5784 44.8901C36.824 44.9215 37.7543 44.9372 38.3616 44.9372C39.4554 44.9372 41.1292 44.847 43.3791 44.6627C44.5664 44.5726 45.5823 44.5098 46.4348 44.4785L45.9327 46.8231C44.3951 46.7918 43.3052 47.1211 42.659 47.8112C42.0128 48.5013 41.3355 50.301 40.631 53.2103C38.128 63.6555 35.664 71.215 33.2389 75.8847C30.8099 80.5545 28.0501 83.9108 24.9555 85.9457C21.8608 87.9846 18.5249 89.0001 14.9437 89.0001C11.9114 89.0001 9.45902 88.3022 7.59446 86.9103C5.72991 85.5184 4.79568 84.0519 4.79568 82.5228C4.79568 81.6955 5.09152 80.9897 5.68709 80.4094C6.28266 79.8292 6.94829 79.5312 7.70735 79.5312C8.74278 79.5312 9.91056 80.2683 11.2185 81.7386C12.7093 83.3932 13.8732 84.4636 14.7062 84.9537C15.5393 85.4439 16.4307 85.6909 17.3766 85.6909C19.2917 85.6909 20.9811 84.942 22.4408 83.4403C25.4226 80.4683 28.3576 73.591 31.2459 62.8086C29.2373 63.9104 27.2015 64.7455 25.1345 65.314C23.0675 65.8826 20.9539 66.1649 18.7935 66.1649C13.4411 66.1649 9.22935 64.7416 6.15809 61.895C2.0514 58.0996 6.97907e-07 52.8064 6.97907e-07 46.0115C6.97907e-07 39.8283 1.55704 34.0136 4.67501 28.5636C7.79298 23.1175 12.1254 18.632 17.6763 15.111C23.2271 11.5901 28.4938 9.82959 33.4841 9.82959C36.1895 9.82959 39.3698 10.257 43.0171 11.1156C46.6956 11.9429 49.4944 12.3703 51.4096 12.4017C49.7357 18.2242 48.8988 23.5213 48.8988 28.3009Z" fill="black"/>
<path d="M77.9577 53.2969L79.4642 55.32C72.0137 62.456 65.626 66.024 60.3048 66.024C58.1444 66.024 56.4939 65.2869 55.3573 63.8166C54.2206 62.3463 53.6484 59.9859 53.6484 56.7394C53.6484 50.1837 55.6259 43.6593 59.5769 37.1663C64.0183 29.7833 69.3239 26.0938 75.4976 26.0938C77.658 26.0938 79.3085 26.6388 80.4451 27.7248C81.5817 28.8109 82.1539 30.3048 82.1539 32.2064C82.1539 34.1982 81.4688 36.1587 80.1025 38.0877C78.7362 40.0168 76.2878 42.0243 72.7572 44.1063C70.9939 45.1179 67.2219 46.9411 61.4453 49.5759C61.1728 51.2305 61.0366 52.8067 61.0366 54.3084C61.0366 56.4845 61.3791 57.998 62.0642 58.8567C62.7493 59.7153 63.7458 60.1427 65.0538 60.1427C66.2994 60.1427 67.6696 59.7898 69.1605 59.0841C71.1612 58.1352 74.0963 56.2061 77.9577 53.2969ZM61.9903 46.6353C66.8872 44.4278 70.5657 42.0557 73.0297 39.5149C74.7035 37.7388 75.5404 35.9783 75.5404 34.2296C75.5404 32.9122 75.1979 31.8614 74.5128 31.0811C73.8277 30.3009 72.9402 29.9088 71.8424 29.9088C70.7175 29.9088 69.6237 30.3361 68.5571 31.1948C67.1285 32.328 65.9257 34.0453 64.9525 36.3429C63.559 39.711 62.5703 43.1418 61.9903 46.6353Z" fill="black"/>
<path d="M98.5772 19.1105L105.817 16.311L102.54 29.1715H111.987L111.255 32.4337H101.8L97.822 47.831C96.5569 52.4537 95.9263 55.6689 95.9263 57.4725C95.9263 58.2998 96.1015 58.8958 96.4518 59.2643C96.8021 59.6329 97.2809 59.8172 97.8882 59.8172C98.8302 59.8172 100.274 59.2486 102.221 58.1155C104.774 56.6138 107.207 54.9161 109.519 53.0144L111.251 55.1278C104.591 60.1818 100.138 63.2754 97.8843 64.4085C95.6305 65.5417 93.8243 66.1102 92.4541 66.1102C91.3291 66.1102 90.4377 65.6985 89.7838 64.8712C89.1298 64.0439 88.8028 62.6951 88.8028 60.8288C88.8028 58.6213 89.379 55.2533 90.5351 50.7207L95.1789 32.4337H87.7908L88.6121 29.1715H96.008L98.5772 19.1105Z" fill="black"/>
<path d="M128.456 18.7995L135.696 16L132.418 28.8605H141.866L141.134 32.1227H131.679L127.7 47.52C126.435 52.1427 125.805 55.3578 125.805 57.1614C125.805 57.9888 125.98 58.5847 126.33 58.9533C126.681 59.3219 127.159 59.5061 127.767 59.5061C128.709 59.5061 130.153 58.9376 132.099 57.8045C134.653 56.3028 137.085 54.605 139.398 52.7034L141.13 54.8168C134.47 59.8708 130.017 62.9644 127.763 64.0975C125.509 65.2306 123.703 65.7992 122.333 65.7992C121.208 65.7992 120.316 65.3875 119.662 64.5602C119.008 63.7328 118.681 62.3841 118.681 60.5177C118.681 58.3103 119.257 54.9422 120.413 50.4097L125.057 32.1227H117.669L118.491 28.8605H125.886L128.456 18.7995Z" fill="black"/>
<path d="M410.786 18.7995L418.027 16L414.749 28.8605H424.196L423.465 32.1227H414.009L410.031 47.52C408.766 52.1427 408.136 55.3578 408.136 57.1614C408.136 57.9888 408.311 58.5847 408.661 58.9533C409.011 59.3219 409.49 59.5061 410.097 59.5061C411.039 59.5061 412.484 58.9376 414.43 57.8045C416.983 56.3028 419.416 54.605 421.728 52.7034L423.461 54.8168C416.8 59.8708 412.347 62.9644 410.094 64.0975C407.84 65.2306 406.034 65.7992 404.663 65.7992C403.538 65.7992 402.647 65.3875 401.993 64.5602C401.339 63.7328 401.012 62.3841 401.012 60.5177C401.012 58.3103 401.588 54.9422 402.744 50.4097L407.388 32.1227H400L400.821 28.8605H408.217L410.786 18.7995Z" fill="black"/>
<path d="M169.464 53.2969L170.971 55.32C163.52 62.456 157.133 66.024 151.811 66.024C149.651 66.024 148.001 65.2869 146.864 63.8166C145.727 62.3463 145.155 59.9859 145.155 56.7394C145.155 50.1837 147.132 43.6593 151.083 37.1663C155.525 29.7833 160.831 26.0938 167.004 26.0938C169.165 26.0938 170.815 26.6388 171.952 27.7248C173.088 28.8109 173.661 30.3048 173.661 32.2064C173.661 34.1982 172.975 36.1587 171.609 38.0877C170.243 40.0168 167.794 42.0243 164.264 44.1063C162.5 45.1179 158.729 46.9411 152.952 49.5759C152.679 51.2305 152.543 52.8067 152.543 54.3084C152.543 56.4845 152.886 57.998 153.571 58.8567C154.256 59.7153 155.252 60.1427 156.56 60.1427C157.806 60.1427 159.176 59.7898 160.667 59.0841C162.668 58.1352 165.603 56.2061 169.464 53.2969ZM153.497 46.6353C158.394 44.4278 162.072 42.0557 164.536 39.5149C166.21 37.7388 167.047 35.9783 167.047 34.2296C167.047 32.9122 166.704 31.8614 166.019 31.0811C165.334 30.3009 164.447 29.9088 163.349 29.9088C162.224 29.9088 161.13 30.3361 160.064 31.1948C158.635 32.328 157.432 34.0453 156.459 36.3429C155.066 39.711 154.077 43.1418 153.497 46.6353Z" fill="black"/>
<path d="M185.746 64.8281H178.95L182.142 52.4695C183.691 46.4039 185.045 40.6441 186.202 35.1941C186.474 33.8453 186.61 33.0023 186.61 32.6651C186.61 31.928 186.276 31.5633 185.606 31.5633C185.151 31.5633 184.45 31.877 183.508 32.5043C182.566 33.1317 180.861 34.6883 178.397 37.1663L176.984 35.5587C179.903 32.4024 182.815 30.0381 185.715 28.458C188.619 26.8818 190.845 26.0898 192.395 26.0898C192.944 26.0898 193.376 26.2192 193.695 26.4819C194.014 26.7446 194.174 27.07 194.174 27.4699C194.174 27.8699 193.971 28.9324 193.574 30.6576L191.589 38.9228C194.668 34.0335 198.14 29.8538 202.009 26.376C203.87 24.7175 205.419 23.8862 206.673 23.8862C207.584 23.8862 208.347 24.1842 208.958 24.7841C209.569 25.384 209.872 26.078 209.872 26.8739C209.872 27.7013 209.577 28.407 208.981 28.9873C208.385 29.5676 206.906 30.2577 204.536 31.0536C202.286 31.8182 200.456 32.7396 199.043 33.8139C197.63 34.8843 196.081 36.5232 194.395 38.7307C192.71 40.9382 191.531 42.8594 190.861 44.4983C190.191 46.1373 189.168 49.9444 187.798 55.9159L185.746 64.8281Z" fill="black"/>
<path d="M216.401 22.651L215.627 19.7103C218.18 17.444 219.846 15.6286 220.621 14.2642C221.396 12.8997 221.785 11.6058 221.785 10.3825C221.785 9.70811 221.419 8.68084 220.691 7.30461C220.115 6.20284 219.823 5.17557 219.823 4.22671C219.823 2.97203 220.189 1.9526 220.917 1.17234C221.645 0.392088 222.575 3.14097e-07 223.7 3.14097e-07C224.887 3.14097e-07 225.876 0.450901 226.666 1.35663C227.456 2.26235 227.853 3.44646 227.853 4.91679C227.853 7.48889 227.024 10.1786 225.366 12.9821C223.708 15.7855 220.722 19.0045 216.401 22.651Z" fill="black"/>
<path d="M247.74 26.1875C250.446 26.1875 252.536 26.7168 254.011 27.7715C255.487 28.8263 256.222 30.0457 256.222 31.4258C256.222 32.2531 255.911 32.9746 255.288 33.5862C254.665 34.1979 253.91 34.5037 253.03 34.5037C252.454 34.5037 251.952 34.3743 251.524 34.1116C251.096 33.8489 250.489 33.202 249.698 32.159C248.207 30.1672 246.732 29.1713 245.272 29.1713C244.027 29.1713 242.921 29.6536 241.964 30.6181C241.006 31.5826 240.527 32.7824 240.527 34.2214C240.527 35.4761 240.831 36.6915 241.438 37.8678C242.045 39.048 243.583 40.9536 246.047 43.5845C249.422 47.1917 251.111 50.6185 251.111 53.865C251.111 57.1115 249.741 59.9463 247.005 62.3773C244.268 64.8082 240.741 66.0237 236.421 66.0237C232.801 66.0237 230.111 65.2826 228.347 63.7966C226.584 62.3106 225.7 60.4796 225.7 58.3074C225.7 57.237 226.035 56.3469 226.705 55.6412C227.374 54.9354 228.196 54.5825 229.169 54.5825C230.021 54.5825 230.749 54.8649 231.36 55.4334C231.971 56.0019 232.271 56.6645 232.271 57.433C232.271 57.7389 232.252 58.1388 232.209 58.6289C232.189 59.0288 232.178 59.366 232.178 59.6405C232.178 60.6521 232.602 61.5108 233.451 62.2126C234.268 62.9183 235.389 63.2712 236.814 63.2712C238.449 63.2712 239.893 62.9889 241.131 62.4243C242.372 61.8558 243.342 61.001 244.042 59.8522C244.739 58.7073 245.089 57.5663 245.089 56.4332C245.089 55.3314 244.763 54.2297 244.109 53.1318C243.455 52.034 241.987 50.2068 239.706 47.67C236.541 44.1216 234.961 40.7105 234.961 37.4365C234.961 34.437 236.164 31.814 238.565 29.5673C240.975 27.3128 244.031 26.1875 247.74 26.1875Z" fill="black"/>
<path d="M298.816 20.8591L299.365 18.7928C303.779 18.3654 307.555 17.7499 310.688 16.95C309.937 19.0987 309.128 21.9099 308.256 25.3799L304.807 38.3188L309.007 38.5502C310.953 38.6403 313.075 38.1502 315.371 37.0798C317.668 36.0094 319.723 34.1235 321.533 31.4298C323.343 28.7362 324.246 25.823 324.246 22.698C324.246 19.6044 323.145 17.1539 320.942 15.3464C318.738 13.5388 315.375 12.637 310.848 12.637C305.683 12.637 300.626 13.9309 295.675 16.5187C290.723 19.1065 286.905 22.4157 284.215 26.4425C281.525 30.4692 280.182 34.445 280.182 38.3659C280.182 40.295 280.533 41.9731 281.233 43.3964C281.934 44.8197 283.179 46.2233 284.974 47.5996C286.465 48.7013 287.208 49.7757 287.208 50.8147C287.208 51.4891 286.963 52.0537 286.477 52.5164C285.99 52.979 285.41 53.2064 284.737 53.2064C282.934 53.2064 281.194 51.9674 279.513 49.4855C277.831 47.0036 276.994 43.863 276.994 40.0676C276.994 33.1158 279.641 26.7718 284.931 21.0434C291.852 13.5075 301.159 9.7395 312.837 9.7395C317.279 9.7395 320.918 10.3198 323.764 11.4843C326.609 12.6488 328.735 14.2407 330.151 16.2639C331.568 18.287 332.273 20.4749 332.273 22.8353C332.273 25.8387 331.28 28.7872 329.295 31.6808C327.31 34.5744 324.387 36.9112 320.521 38.6874C316.656 40.4636 312.362 41.3536 307.633 41.3536C306.905 41.3536 305.768 41.3065 304.223 41.2164L300.556 55.5158C299.949 57.935 299.264 60.3189 298.509 62.6754C300.875 63.2557 302.938 63.5458 304.702 63.5458C306.917 63.5458 309.299 63.1184 311.848 62.2598L311.3 64.8319C308.929 65.4749 306.924 65.7964 305.286 65.7964C303.705 65.7964 301.397 65.6278 298.357 65.2906C295.928 64.9848 293.954 64.8319 292.436 64.8319C289.489 64.8319 286.465 65.1847 283.366 65.8905L283.915 63.4556C287.076 62.9341 289.232 62.1853 290.389 61.205C292.031 59.8249 293.366 57.0528 294.402 52.8888L301.28 25.3642C301.584 24.0782 301.736 23.1725 301.736 22.6549C301.736 22.1648 301.537 21.7296 301.144 21.3453C300.751 20.9611 300.276 20.7729 299.731 20.7729C299.517 20.765 299.213 20.7964 298.816 20.8591Z" fill="black"/>
<path d="M351.199 26.1875C354.18 26.1875 356.656 27.3834 358.634 29.7712C360.611 32.159 361.6 35.4839 361.6 39.742C361.6 46.5408 359.229 52.6456 354.484 58.0525C349.739 63.4594 344.721 66.1609 339.431 66.1609C336.177 66.1609 333.554 65.0905 331.564 62.9458C329.575 60.8011 328.575 57.8761 328.575 54.1709C328.575 47.7367 330.401 41.7965 334.048 36.3426C338.641 29.5712 344.356 26.1875 351.199 26.1875ZM347.322 29.634C344.737 29.634 342.234 31.4964 339.817 35.2173C337.399 38.9382 336.189 44.0785 336.189 50.6342C336.189 54.6178 336.932 57.7545 338.423 60.0522C339.517 61.7382 340.977 62.5812 342.802 62.5812C345.356 62.5812 347.684 60.9893 349.782 57.8016C352.46 53.6651 353.795 48.5365 353.795 42.4082C353.795 37.8129 353.18 34.5351 351.946 32.5746C350.712 30.6142 349.178 29.634 347.322 29.634Z" fill="black"/>
<path d="M374.37 64.8281H367.574L370.766 52.4695C372.315 46.4039 373.669 40.6441 374.826 35.1941C375.098 33.8453 375.234 33.0023 375.234 32.6651C375.234 31.928 374.9 31.5633 374.23 31.5633C373.775 31.5633 373.074 31.877 372.132 32.5043C371.19 33.1317 369.485 34.6883 367.021 37.1663L365.608 35.5587C368.527 32.4024 371.439 30.0381 374.339 28.458C377.243 26.8818 379.469 26.0898 381.019 26.0898C381.568 26.0898 382 26.2192 382.319 26.4819C382.638 26.7446 382.798 27.07 382.798 27.4699C382.798 27.8699 382.595 28.9324 382.198 30.6576L380.213 38.9228C383.292 34.0335 386.764 29.8538 390.633 26.376C392.494 24.7175 394.043 23.8862 395.297 23.8862C396.208 23.8862 396.971 24.1842 397.582 24.7841C398.193 25.384 398.496 26.078 398.496 26.8739C398.496 27.7013 398.201 28.407 397.605 28.9873C397.01 29.5676 395.53 30.2577 393.16 31.0536C390.91 31.8182 389.08 32.7396 387.667 33.8139C386.254 34.8843 384.705 36.5232 383.019 38.7307C381.334 40.9382 380.155 42.8594 379.485 44.4983C378.816 46.1373 377.792 49.9444 376.422 55.9159L374.37 64.8281Z" fill="black"/>
<path d="M425.772 29.1753H436.675C438.469 21.5178 440.521 15.8208 442.833 12.0842C445.145 8.34756 448.154 5.39906 451.864 3.23865C455.573 1.07824 459.073 3.14097e-07 462.354 3.14097e-07C464.211 3.14097e-07 465.609 0.368563 466.551 1.10177C467.493 1.83497 467.964 2.70933 467.964 3.72092C467.964 4.63841 467.644 5.4069 467.002 6.01856C466.36 6.63022 465.527 6.93605 464.487 6.93605C463.421 6.93605 461.408 6.61453 458.458 5.97151C456.998 5.66568 455.854 5.51277 455.032 5.51277C453.02 5.51277 451.21 6.75961 449.594 9.25721C447.979 11.7548 446.687 15.1307 445.71 19.3888L443.421 29.1753H455.507L454.775 32.4375H442.529L435.386 61.7539C433.168 70.6661 429.618 77.4218 424.736 82.0171C419.855 86.6124 414.557 88.91 408.839 88.91C406.924 88.91 405.472 88.5336 404.483 87.7847C403.494 87.0358 403 86.1066 403 85.0048C403 84.0559 403.343 83.2953 404.028 82.7307C404.713 82.1661 405.694 81.8798 406.97 81.8798C407.609 81.8798 408.551 81.9583 409.8 82.1112C411.93 82.3856 413.965 82.5229 415.912 82.5229C418.921 82.5229 421.112 81.8093 422.482 80.386C423.853 78.9627 425.219 75.477 426.589 69.9329L435.85 32.4375H424.946L425.772 29.1753Z" fill="black"/>
<path d="M476.726 26.1875C479.707 26.1875 482.183 27.3834 484.16 29.7712C486.138 32.159 487.127 35.4839 487.127 39.742C487.127 46.5408 484.756 52.6456 480.011 58.0525C475.266 63.4594 470.248 66.1609 464.958 66.1609C461.704 66.1609 459.08 65.0905 457.091 62.9458C455.102 60.8011 454.102 57.8761 454.102 54.1709C454.102 47.7367 455.927 41.7965 459.575 36.3426C464.164 29.5712 469.882 26.1875 476.726 26.1875ZM472.849 29.634C470.264 29.634 467.761 31.4964 465.344 35.2173C462.926 38.9382 461.716 44.0785 461.716 50.6342C461.716 54.6178 462.459 57.7545 463.95 60.0522C465.044 61.7382 466.504 62.5812 468.329 62.5812C470.883 62.5812 473.211 60.9893 475.309 57.8016C477.987 53.6651 479.322 48.5365 479.322 42.4082C479.322 37.8129 478.707 34.5351 477.473 32.5746C476.239 30.6142 474.701 29.634 472.849 29.634Z" fill="black"/>
<path d="M510.437 53.7556L511.986 55.4102C509.616 58.1077 506.809 60.5622 503.57 62.7854C500.332 65.0085 497.661 66.1181 495.563 66.1181C494.621 66.1181 493.847 65.7574 493.236 65.0399C492.624 64.3223 492.325 63.3304 492.325 62.0757C492.325 59.6251 493.267 54.5397 495.151 46.8195L500.071 26.6466C501.862 19.3576 503.364 14.4722 504.583 11.9903C506.463 8.238 509.129 5.32086 512.578 3.25063C516.027 1.17649 519.662 0.137451 523.489 0.137451C524.793 0.137451 525.821 0.455043 526.564 1.08631C527.308 1.72149 527.681 2.48214 527.681 3.3761C527.681 4.36417 527.315 5.17187 526.591 5.80705C525.863 6.43831 524.805 6.75591 523.411 6.75591C522.504 6.75591 521.216 6.60299 519.546 6.29716C518.09 6.05015 516.743 5.9286 515.501 5.9286C514.259 5.9286 513.317 6.18738 512.683 6.70493C511.803 7.43814 511.009 8.97905 510.297 11.3237C509.585 13.6723 508.424 18.3029 506.817 25.2233L502.266 44.4748C500.016 54.1241 498.892 59.1625 498.892 59.5898C498.892 60.57 499.242 61.0602 499.943 61.0602C500.612 61.0602 501.585 60.6602 502.862 59.8643C505.384 58.2763 507.911 56.2375 510.437 53.7556Z" fill="black"/>
<path d="M515.317 36.8484L513.309 35.2879C516.345 31.9198 519.116 29.5203 521.623 28.097C524.13 26.6737 526.263 25.9601 528.027 25.9601C529 25.9601 529.743 26.1758 530.257 26.6031C530.775 27.0305 531.032 27.6147 531.032 28.3479C531.032 29.238 530.047 33.0059 528.073 39.6518C524.858 50.5245 523.25 57.0802 523.25 59.319C523.25 59.7464 523.355 60.1071 523.569 60.3972C523.784 60.6874 524.009 60.8325 524.255 60.8325C525.228 60.8325 527.723 58.9347 531.736 55.1354L533.515 56.8802C529.35 60.8325 526.306 63.3575 524.391 64.4632C522.476 65.5689 520.907 66.1178 519.692 66.1178C518.63 66.1178 517.785 65.7806 517.162 65.1062C516.539 64.4318 516.228 63.4987 516.228 62.3028C516.228 58.4721 518.509 49.1169 523.071 34.2293C523.285 33.5235 523.39 32.8961 523.39 32.3472C523.39 31.7356 523.118 31.4297 522.569 31.4297C521.962 31.4297 521.269 31.6768 520.494 32.1669C519.72 32.657 517.995 34.2136 515.317 36.8484ZM533.246 6.43018C534.189 6.43018 534.963 6.74385 535.574 7.37119C536.185 7.99853 536.485 8.80231 536.485 9.78253C536.485 11.1313 536.022 12.3154 535.096 13.3427C534.169 14.37 533.126 14.8836 531.97 14.8836C531.059 14.8836 530.296 14.5621 529.689 13.9191C529.081 13.276 528.778 12.4331 528.778 11.3901C528.778 10.0099 529.218 8.84152 530.101 7.87698C530.985 6.91244 532.028 6.43018 533.246 6.43018Z" fill="black"/>
<path d="M558.879 26.1875C561.86 26.1875 564.336 27.3834 566.314 29.7712C568.291 32.159 569.28 35.4839 569.28 39.742C569.28 46.5408 566.909 52.6456 562.164 58.0525C557.419 63.4594 552.401 66.1609 547.111 66.1609C543.857 66.1609 541.234 65.0905 539.244 62.9458C537.255 60.8011 536.255 57.8761 536.255 54.1709C536.255 47.7367 538.081 41.7965 541.728 36.3426C546.321 29.5712 552.039 26.1875 558.879 26.1875ZM555.002 29.634C552.417 29.634 549.914 31.4964 547.497 35.2173C545.079 38.9382 543.869 44.0785 543.869 50.6342C543.869 54.6178 544.612 57.7545 546.103 60.0522C547.197 61.7382 548.657 62.5812 550.482 62.5812C553.036 62.5812 555.364 60.9893 557.462 57.8016C560.14 53.6651 561.475 48.5365 561.475 42.4082C561.475 37.8129 560.86 34.5351 559.626 32.5746C558.392 30.6142 556.858 29.634 555.002 29.634Z" fill="black"/>
</svg>
